<mxfile host="app.diagrams.net" agent="Mozilla/5.0 (Windows NT 10.0; Win64; x64) AppleWebKit/537.36 (KHTML, like Gecko) Chrome/136.0.0.0 Safari/537.36" version="27.1.0">
  <diagram name="Страница — 1" id="Ndk-0WW0AeaskkKq-d2-">
    <mxGraphModel dx="1426" dy="785" grid="1" gridSize="10" guides="1" tooltips="1" connect="1" arrows="1" fold="1" page="1" pageScale="1" pageWidth="827" pageHeight="1169" math="1" shadow="0">
      <root>
        <mxCell id="0" />
        <mxCell id="1" parent="0" />
        <mxCell id="3NRV83JWHgNm8MeG_gxz-1" value="Z&lt;span style=&quot;background-color: transparent; color: light-dark(rgb(0, 0, 0), rgb(255, 255, 255));&quot;&gt;0&lt;/span&gt;" style="rounded=0;whiteSpace=wrap;html=1;" vertex="1" parent="1">
          <mxGeometry x="40" y="160" width="120" height="60" as="geometry" />
        </mxCell>
        <mxCell id="3NRV83JWHgNm8MeG_gxz-2" value="Z1" style="rounded=0;whiteSpace=wrap;html=1;" vertex="1" parent="1">
          <mxGeometry x="220" y="160" width="120" height="60" as="geometry" />
        </mxCell>
        <mxCell id="3NRV83JWHgNm8MeG_gxz-3" value="Z2" style="rounded=0;whiteSpace=wrap;html=1;" vertex="1" parent="1">
          <mxGeometry x="400" y="160" width="120" height="60" as="geometry" />
        </mxCell>
        <mxCell id="3NRV83JWHgNm8MeG_gxz-4" value="Z3" style="rounded=0;whiteSpace=wrap;html=1;" vertex="1" parent="1">
          <mxGeometry x="580" y="160" width="120" height="60" as="geometry" />
        </mxCell>
        <mxCell id="3NRV83JWHgNm8MeG_gxz-5" value="Z4" style="rounded=0;whiteSpace=wrap;html=1;" vertex="1" parent="1">
          <mxGeometry x="760" y="160" width="120" height="60" as="geometry" />
        </mxCell>
        <mxCell id="3NRV83JWHgNm8MeG_gxz-6" value="" style="endArrow=classic;html=1;rounded=0;exitX=1;exitY=0.25;exitDx=0;exitDy=0;entryX=0;entryY=0.25;entryDx=0;entryDy=0;" edge="1" parent="1" source="3NRV83JWHgNm8MeG_gxz-1" target="3NRV83JWHgNm8MeG_gxz-2">
          <mxGeometry width="50" height="50" relative="1" as="geometry">
            <mxPoint x="390" y="430" as="sourcePoint" />
            <mxPoint x="440" y="380" as="targetPoint" />
          </mxGeometry>
        </mxCell>
        <mxCell id="3NRV83JWHgNm8MeG_gxz-7" value="&lt;font style=&quot;font-size: 15px;&quot;&gt;4λ&lt;/font&gt;" style="text;html=1;align=center;verticalAlign=middle;resizable=0;points=[];autosize=1;strokeColor=none;fillColor=none;" vertex="1" parent="1">
          <mxGeometry x="170" y="140" width="40" height="30" as="geometry" />
        </mxCell>
        <mxCell id="3NRV83JWHgNm8MeG_gxz-8" value="" style="endArrow=classic;html=1;rounded=0;exitX=0;exitY=0.75;exitDx=0;exitDy=0;entryX=1;entryY=0.75;entryDx=0;entryDy=0;" edge="1" parent="1" source="3NRV83JWHgNm8MeG_gxz-2" target="3NRV83JWHgNm8MeG_gxz-1">
          <mxGeometry width="50" height="50" relative="1" as="geometry">
            <mxPoint x="390" y="430" as="sourcePoint" />
            <mxPoint x="440" y="380" as="targetPoint" />
          </mxGeometry>
        </mxCell>
        <mxCell id="3NRV83JWHgNm8MeG_gxz-9" value="&lt;font style=&quot;font-size: 15px;&quot;&gt;μ&lt;/font&gt;" style="text;html=1;align=center;verticalAlign=middle;resizable=0;points=[];autosize=1;strokeColor=none;fillColor=none;" vertex="1" parent="1">
          <mxGeometry x="175" y="208" width="30" height="30" as="geometry" />
        </mxCell>
        <mxCell id="3NRV83JWHgNm8MeG_gxz-10" value="P&lt;sub&gt;0&lt;/sub&gt;(t)" style="text;html=1;align=center;verticalAlign=middle;resizable=0;points=[];autosize=1;strokeColor=none;fillColor=none;" vertex="1" parent="1">
          <mxGeometry x="75" y="120" width="50" height="30" as="geometry" />
        </mxCell>
        <mxCell id="3NRV83JWHgNm8MeG_gxz-11" value="P&lt;span style=&quot;font-size: 10px;&quot;&gt;1&lt;/span&gt;(t)" style="text;html=1;align=center;verticalAlign=middle;resizable=0;points=[];autosize=1;strokeColor=none;fillColor=none;" vertex="1" parent="1">
          <mxGeometry x="255" y="120" width="50" height="30" as="geometry" />
        </mxCell>
        <mxCell id="3NRV83JWHgNm8MeG_gxz-12" value="P&lt;span style=&quot;font-size: 10px;&quot;&gt;2&lt;/span&gt;(t)" style="text;html=1;align=center;verticalAlign=middle;resizable=0;points=[];autosize=1;strokeColor=none;fillColor=none;" vertex="1" parent="1">
          <mxGeometry x="435" y="120" width="50" height="30" as="geometry" />
        </mxCell>
        <mxCell id="3NRV83JWHgNm8MeG_gxz-13" value="P&lt;span style=&quot;font-size: 10px;&quot;&gt;3&lt;/span&gt;(t)" style="text;html=1;align=center;verticalAlign=middle;resizable=0;points=[];autosize=1;strokeColor=none;fillColor=none;" vertex="1" parent="1">
          <mxGeometry x="615" y="120" width="50" height="30" as="geometry" />
        </mxCell>
        <mxCell id="3NRV83JWHgNm8MeG_gxz-14" value="P&lt;span style=&quot;font-size: 10px;&quot;&gt;4&lt;/span&gt;(t)" style="text;html=1;align=center;verticalAlign=middle;resizable=0;points=[];autosize=1;strokeColor=none;fillColor=none;" vertex="1" parent="1">
          <mxGeometry x="795" y="120" width="50" height="30" as="geometry" />
        </mxCell>
        <mxCell id="3NRV83JWHgNm8MeG_gxz-15" value="" style="endArrow=classic;html=1;rounded=0;exitX=1;exitY=0.25;exitDx=0;exitDy=0;entryX=0;entryY=0.25;entryDx=0;entryDy=0;" edge="1" parent="1">
          <mxGeometry width="50" height="50" relative="1" as="geometry">
            <mxPoint x="340" y="176" as="sourcePoint" />
            <mxPoint x="400" y="176" as="targetPoint" />
          </mxGeometry>
        </mxCell>
        <mxCell id="3NRV83JWHgNm8MeG_gxz-16" value="&lt;font style=&quot;font-size: 15px;&quot;&gt;3λ&lt;/font&gt;" style="text;html=1;align=center;verticalAlign=middle;resizable=0;points=[];autosize=1;strokeColor=none;fillColor=none;" vertex="1" parent="1">
          <mxGeometry x="350" y="141" width="40" height="30" as="geometry" />
        </mxCell>
        <mxCell id="3NRV83JWHgNm8MeG_gxz-17" value="" style="endArrow=classic;html=1;rounded=0;exitX=0;exitY=0.75;exitDx=0;exitDy=0;entryX=1;entryY=0.75;entryDx=0;entryDy=0;" edge="1" parent="1">
          <mxGeometry width="50" height="50" relative="1" as="geometry">
            <mxPoint x="400" y="206" as="sourcePoint" />
            <mxPoint x="340" y="206" as="targetPoint" />
          </mxGeometry>
        </mxCell>
        <mxCell id="3NRV83JWHgNm8MeG_gxz-18" value="&lt;font style=&quot;font-size: 15px;&quot;&gt;μ&lt;/font&gt;" style="text;html=1;align=center;verticalAlign=middle;resizable=0;points=[];autosize=1;strokeColor=none;fillColor=none;" vertex="1" parent="1">
          <mxGeometry x="355" y="209" width="30" height="30" as="geometry" />
        </mxCell>
        <mxCell id="3NRV83JWHgNm8MeG_gxz-19" value="" style="endArrow=classic;html=1;rounded=0;exitX=1;exitY=0.25;exitDx=0;exitDy=0;entryX=0;entryY=0.25;entryDx=0;entryDy=0;" edge="1" parent="1">
          <mxGeometry width="50" height="50" relative="1" as="geometry">
            <mxPoint x="520" y="176" as="sourcePoint" />
            <mxPoint x="580" y="176" as="targetPoint" />
          </mxGeometry>
        </mxCell>
        <mxCell id="3NRV83JWHgNm8MeG_gxz-20" value="&lt;font style=&quot;font-size: 15px;&quot;&gt;2λ&lt;/font&gt;" style="text;html=1;align=center;verticalAlign=middle;resizable=0;points=[];autosize=1;strokeColor=none;fillColor=none;" vertex="1" parent="1">
          <mxGeometry x="530" y="141" width="40" height="30" as="geometry" />
        </mxCell>
        <mxCell id="3NRV83JWHgNm8MeG_gxz-21" value="" style="endArrow=classic;html=1;rounded=0;exitX=0;exitY=0.75;exitDx=0;exitDy=0;entryX=1;entryY=0.75;entryDx=0;entryDy=0;" edge="1" parent="1">
          <mxGeometry width="50" height="50" relative="1" as="geometry">
            <mxPoint x="580" y="206" as="sourcePoint" />
            <mxPoint x="520" y="206" as="targetPoint" />
          </mxGeometry>
        </mxCell>
        <mxCell id="3NRV83JWHgNm8MeG_gxz-22" value="&lt;font style=&quot;font-size: 15px;&quot;&gt;μ&lt;/font&gt;" style="text;html=1;align=center;verticalAlign=middle;resizable=0;points=[];autosize=1;strokeColor=none;fillColor=none;" vertex="1" parent="1">
          <mxGeometry x="535" y="209" width="30" height="30" as="geometry" />
        </mxCell>
        <mxCell id="3NRV83JWHgNm8MeG_gxz-23" value="" style="endArrow=classic;html=1;rounded=0;exitX=1;exitY=0.25;exitDx=0;exitDy=0;entryX=0;entryY=0.25;entryDx=0;entryDy=0;" edge="1" parent="1">
          <mxGeometry width="50" height="50" relative="1" as="geometry">
            <mxPoint x="700" y="175" as="sourcePoint" />
            <mxPoint x="760" y="175" as="targetPoint" />
          </mxGeometry>
        </mxCell>
        <mxCell id="3NRV83JWHgNm8MeG_gxz-24" value="&lt;font style=&quot;font-size: 15px;&quot;&gt;λ&lt;/font&gt;" style="text;html=1;align=center;verticalAlign=middle;resizable=0;points=[];autosize=1;strokeColor=none;fillColor=none;" vertex="1" parent="1">
          <mxGeometry x="715" y="140" width="30" height="30" as="geometry" />
        </mxCell>
        <mxCell id="3NRV83JWHgNm8MeG_gxz-25" value="" style="endArrow=classic;html=1;rounded=0;exitX=0;exitY=0.75;exitDx=0;exitDy=0;entryX=1;entryY=0.75;entryDx=0;entryDy=0;" edge="1" parent="1">
          <mxGeometry width="50" height="50" relative="1" as="geometry">
            <mxPoint x="760" y="205" as="sourcePoint" />
            <mxPoint x="700" y="205" as="targetPoint" />
          </mxGeometry>
        </mxCell>
        <mxCell id="3NRV83JWHgNm8MeG_gxz-26" value="&lt;font style=&quot;font-size: 15px;&quot;&gt;μ&lt;/font&gt;" style="text;html=1;align=center;verticalAlign=middle;resizable=0;points=[];autosize=1;strokeColor=none;fillColor=none;" vertex="1" parent="1">
          <mxGeometry x="715" y="208" width="30" height="30" as="geometry" />
        </mxCell>
      </root>
    </mxGraphModel>
  </diagram>
</mxfile>
